HIERARCHY
ROOT Hips
{
	OFFSET -10.056300 7.733760 -472.550000
	CHANNELS 6 Xposition Yposition Zposition Zrotation Yrotation Xrotation 
	JOINT Spine
	{
		OFFSET 0.000000 0.000000 0.000000
		CHANNELS 3 Zrotation Yrotation Xrotation
		JOINT Spine1
		{
			OFFSET 19.000000 0.000000 0.000000
			CHANNELS 3 Zrotation Yrotation Xrotation
			JOINT Neck
			{
				OFFSET 22.500000 0.600000 0.000000
				CHANNELS 3 Zrotation Yrotation Xrotation
				JOINT Head
				{
					OFFSET 14.000000 0.030878 0.000000
					CHANNELS 3 Zrotation Yrotation Xrotation
					End Site
					{
						OFFSET 17.000000 0.000000 0.000000
					}
				}
			}
			JOINT LeftShoulder
			{
				OFFSET 19.800000 3.700000 4.300000
				CHANNELS 3 Zrotation Yrotation Xrotation
				JOINT LeftArm
				{
					OFFSET 8.000000 0.000000 0.000000
					CHANNELS 3 Zrotation Yrotation Xrotation
					JOINT LeftForeArm
					{
						OFFSET 15.200000 0.000000 0.000000
						CHANNELS 3 Zrotation Yrotation Xrotation
						JOINT LeftHand
						{
							OFFSET 17.800000 0.000000 0.000000
							CHANNELS 3 Zrotation Yrotation Xrotation
							End Site
							{
								OFFSET 7.200000 0.000000 0.000000
							}
						}
					}
				}
			}
			JOINT RightShoulder
			{
				OFFSET 19.800000 3.700000 -4.300000
				CHANNELS 3 Zrotation Yrotation Xrotation
				JOINT RightArm
				{
					OFFSET 8.000000 0.000000 0.151654
					CHANNELS 3 Zrotation Yrotation Xrotation
					JOINT RightForeArm
					{
						OFFSET 15.200000 0.000000 0.000000
						CHANNELS 3 Zrotation Yrotation Xrotation
						JOINT RightHand
						{
							OFFSET 17.800000 0.000000 0.000000
							CHANNELS 3 Zrotation Yrotation Xrotation
							End Site
							{
								OFFSET 7.200000 0.000000 0.000000
							}
						}
					}
				}
			}
		}
	}
	JOINT LeftUpLeg
	{
		OFFSET 5.984250 -7.666000 4.788790
		CHANNELS 3 Zrotation Yrotation Xrotation
		JOINT LeftLeg
		{
			OFFSET 16.000000 0.000000 0.000000
			CHANNELS 3 Zrotation Yrotation Xrotation
			JOINT LeftFoot
			{
				OFFSET 18.000000 0.000000 0.000000
				CHANNELS 3 Zrotation Yrotation Xrotation
				End Site
				{
					OFFSET 0.000000 -10.800000 0.000000
				}
			}
		}
	}
	JOINT RightUpLeg
	{
		OFFSET 5.984250 -7.665980 -4.788790
		CHANNELS 3 Zrotation Yrotation Xrotation
		JOINT RightLeg
		{
			OFFSET 16.000000 0.000000 0.000000
			CHANNELS 3 Zrotation Yrotation Xrotation
			JOINT RightFoot
			{
				OFFSET 18.000000 0.000000 0.000000
				CHANNELS 3 Zrotation Yrotation Xrotation
				End Site
				{
					OFFSET 0.000000 -10.800000 0.000000
				}
			}
		}
	}
	JOINT Tail
	{
		OFFSET 6.836960 -0.722574 0.000000
		CHANNELS 3 Zrotation Yrotation Xrotation
		JOINT Tail1
		{
			OFFSET 12.000000 0.000000 0.000000
			CHANNELS 3 Zrotation Yrotation Xrotation
			End Site
			{
				OFFSET 12.000000 0.000000 0.000000
			}
		}
	}
}
MOTION
Frames: 16
Frame Time: 0.033333
33856.843750 10528.045898 -11871.021484 31.596689 9.348860 20.259565 179.692719 -8.359523 -2.947728 55.057270 -46.417797 -35.348011 -36.193279 -21.702124 21.919205 -7.704874 -12.876835 170.908905 -169.284546 86.175560 -146.382599 159.023972 34.990307 -111.524712 -53.001305 -35.110737 127.674263 -159.708374 -15.217319 5.276978 -125.694458 -9.378576 -93.061615 -176.011581 -24.908371 165.487381 132.466995 -45.485542 -42.163303 44.774826 -41.561680 -23.370831 -140.540771 -27.670431 8.461463 13.017960 42.542961 53.933090 -36.154945 -49.033684 23.961012 31.336374 45.091339 -93.939674 -44.295647 40.647350 -8.756667 -155.480682 -4.567235 0.514365 51.166328 24.936617 -18.087677 -31.840523 -22.229666 -131.949554 
52089.960938 -2221.249023 -26463.539062 29.682037 10.995559 18.084364 -178.741364 -9.769885 -3.263864 52.757851 -45.081310 -34.595890 -36.634586 -20.358784 21.554762 -8.896105 -11.794768 170.781738 -167.185043 86.914215 -147.336365 121.022575 43.262341 -128.806366 -34.932339 -39.971371 124.307854 -164.437103 -15.341043 13.990640 -126.887344 -8.029039 -90.935471 -164.857758 -24.012726 156.735107 157.904770 -70.670525 -12.269620 -24.032553 -48.694096 1.470032 -135.286102 -18.680164 8.840956 7.486071 37.598839 49.544178 -45.847702 -51.259026 29.000849 45.051548 38.889618 -81.147148 -46.024807 39.840595 -9.448608 -154.175919 -4.914842 1.119474 75.471336 36.483784 -11.326539 -23.206381 -15.048009 -144.280151 
39103.597656 6766.248047 -47137.175781 27.122009 11.730762 16.205729 -177.298035 -11.057947 -3.495450 49.797371 -43.044353 -33.056675 -35.983166 -19.182520 20.813446 -11.442700 -9.312417 171.737183 137.179352 89.731651 156.279343 75.292412 40.481155 -156.776840 -19.850096 -40.407623 119.788223 -169.186981 -14.624393 25.612097 -126.907791 -7.107552 -92.371933 -148.734772 -23.324944 151.638458 126.053879 -64.042610 57.716263 -74.587837 -39.157543 19.353800 -127.893143 -11.188419 10.030519 4.789488 31.783028 47.788437 -52.020874 -54.857040 34.248447 46.516048 32.033470 -79.247520 -44.068275 41.872612 -9.001086 -153.209213 -5.607651 2.285250 -162.095551 22.718729 44.781002 -18.214897 -8.650196 -148.698532 
4407.082031 14131.253906 -67919.296875 25.147573 13.399611 14.334315 -176.240097 -12.060932 -3.626651 46.646530 -40.632401 -31.060453 -34.748177 -18.377380 19.883858 -15.150601 -5.800040 173.146301 12.379496 84.108871 33.339577 43.091160 27.098921 -176.050049 -11.686032 -37.497070 117.246994 -172.411133 -13.239146 34.844711 -126.579369 -6.803040 -97.790993 -129.654236 -22.101370 148.766022 130.785675 -45.181667 77.202477 -96.282272 -32.582874 25.058661 -121.348328 -7.237195 12.119691 3.661848 27.003689 47.539379 -57.096626 -57.648174 39.238712 40.669537 23.866030 -85.633972 -35.671322 48.406281 -4.820574 -152.488342 -6.514112 3.970086 -99.572166 -12.182972 32.130547 -14.833299 -3.851420 -147.301620 
-25052.386719 13764.355469 -81981.500000 23.855083 15.390234 11.725473 -175.775177 -12.588446 -3.574588 43.540108 -38.181744 -28.807735 -33.975895 -17.901987 19.008226 -18.320986 -2.552721 173.661560 5.682988 73.856087 31.620874 20.023319 9.576921 172.481644 -10.202135 -34.049866 115.092094 -172.364685 -12.294349 38.040741 -127.652718 -5.641291 -106.002777 -110.994102 -20.320862 148.512375 142.946472 -30.437395 81.296783 -105.092300 -32.157726 30.255814 -116.228821 -6.944332 13.463919 3.806345 24.441008 48.433071 -57.573513 -58.811573 40.771061 32.250950 10.307964 -99.823486 -3.185181 58.411739 18.178812 -152.749939 -7.773306 6.466115 -91.907059 -11.402508 28.181345 -12.432463 -1.064974 -142.008926 
-30643.728516 9344.965820 -90809.031250 22.962248 17.478043 8.816730 -175.927856 -12.528368 -3.286138 40.767525 -35.801025 -26.480379 -34.075562 -17.742712 18.363441 -20.072620 -0.096370 172.798676 -6.756679 57.270409 31.246468 1.126092 -10.018278 165.707367 -10.269983 -32.620491 109.366585 -169.752792 -11.611126 38.956966 -131.691757 -4.176121 -116.267433 -95.699791 -19.478769 149.486160 155.195786 -22.363211 78.304451 -108.560577 -35.790653 36.632805 -111.847282 -9.010841 13.020957 5.408225 24.196896 50.579872 -49.552273 -58.407375 36.233887 28.201260 -17.988308 -125.063805 57.942730 46.208431 63.984299 -154.294144 -9.748819 9.917719 -99.714767 -5.717749 32.721497 -11.245640 -0.408828 -134.740723 
-27850.779297 -7770.813477 -98135.085938 22.509295 19.447590 8.053985 -176.498978 -11.892941 -2.766374 38.513187 -33.381332 -24.066883 -35.284473 -17.373901 18.183222 -20.112364 1.778664 170.968826 -22.517179 32.402687 39.299149 -14.013734 -28.223648 162.914108 -1.602227 -35.087128 91.578850 -166.697662 -9.912169 43.913975 -138.910873 -3.319111 -130.372299 -83.423866 -20.650455 149.315079 168.533890 -14.438004 70.973793 -109.980606 -42.150501 44.745419 -108.514046 -11.990253 11.400081 10.705772 26.404772 55.662750 -30.627430 -59.601940 26.477865 60.673080 -54.378647 170.211136 80.912064 17.269035 72.026962 -157.225967 -11.581310 13.073227 -113.580292 -0.020171 39.789154 -12.471960 -1.376302 -125.833618 
-36453.617188 -5463.160156 -107501.953125 20.684881 20.426382 11.513707 -177.264908 -10.714710 -2.098828 36.811420 -30.822771 -21.515738 -37.197014 -16.464661 18.250448 -18.673599 2.972565 168.905563 -43.304939 7.283610 60.200943 -25.172316 -41.348503 161.513092 33.360806 -27.656733 41.263672 -164.756134 -5.883700 63.468716 -149.101608 -4.330563 -151.175308 -72.105949 -24.379057 146.739441 -179.920883 -2.160928 64.321320 -111.567848 -49.091755 53.691570 -106.287224 -14.798195 9.526303 21.280645 29.221354 65.836288 0.796730 -62.276192 9.990814 116.061821 -38.144421 86.383797 77.567329 4.940006 67.542648 -160.528168 -12.367538 14.286538 -134.072067 2.707967 49.670216 -18.291592 -3.046645 -114.659851 
-50929.570312 -9613.169922 -117496.234375 17.334496 22.126440 18.451828 -177.953156 -9.110894 -1.319141 35.392445 -28.213451 -18.788099 -38.845345 -15.144114 17.973400 -16.548431 4.162416 167.195618 -68.184212 -1.892332 89.646484 -30.283173 -48.061028 158.409851 45.405014 53.356121 -34.123493 -162.328705 -1.043579 96.294357 -157.640915 -10.813128 -177.057693 -59.820705 -29.946651 140.325058 -174.593185 12.046173 57.264900 -113.769951 -55.913628 62.483597 -105.889984 -17.063065 7.179616 37.236992 29.330109 81.915138 37.774178 -62.100651 -10.509944 124.591934 -20.811518 59.178841 53.431129 9.134523 59.410374 -163.252502 -12.552117 14.205278 -161.306671 5.542458 60.340824 -29.371761 -4.068218 -102.345909 
-58386.484375 -21920.617188 -127472.250000 13.612988 25.186207 25.430162 -178.171585 -7.225001 -0.428036 33.607971 -25.640663 -15.777554 -39.721413 -13.250937 16.940773 -14.816372 5.635756 165.571442 -83.408585 3.278563 115.097221 -30.888577 -49.637287 153.708542 -66.775223 40.482384 -171.784897 -158.758438 -0.378580 125.163589 -157.913635 -20.317411 158.889435 -45.411076 -34.719334 129.348877 -177.984344 24.314093 39.499386 -113.023979 -66.153580 70.258850 -107.679459 -19.832056 3.964607 55.716099 22.972151 100.716095 69.603989 -58.191036 -27.003994 130.813477 -16.657337 43.500866 20.467831 15.171267 45.530598 -165.629150 -12.702427 13.924265 171.664444 12.471082 65.499298 -41.838531 -3.994218 -91.958031 
-64135.605469 -35595.839844 -135484.656250 11.316031 29.388584 30.212524 -177.745743 -5.111706 0.577048 31.076769 -23.148611 -12.519605 -39.409264 -10.964463 15.217797 -14.198622 6.913104 163.606766 -84.450493 12.747095 131.147736 -30.655939 -47.951538 149.507080 -76.881310 12.555039 175.492142 -157.152725 -3.628365 145.022141 -149.007080 -26.279680 140.862686 -29.771936 -36.923401 115.461761 164.602188 23.590418 -4.977353 -83.122757 -83.401733 52.010509 -111.434616 -23.520763 -0.164092 70.949341 10.092346 115.906654 88.004662 -52.618977 -33.272430 143.465668 -19.465523 30.253714 -3.722492 13.435784 33.505665 -168.457748 -12.886600 14.186999 147.301392 19.657385 61.663670 -49.638203 -4.968980 -87.559418 
-67528.468750 -58931.898438 -143652.968750 10.282119 33.479950 32.410919 -176.610336 -2.821165 1.709857 27.460464 -20.990175 -9.135219 -38.306061 -8.652114 13.183851 -14.151305 7.971045 161.338196 -72.686989 20.887054 143.701141 -30.921211 -44.076248 147.487747 -83.514214 -1.312981 174.200027 -158.567307 -6.007396 157.581161 -136.641373 -26.180552 129.372894 -14.972216 -36.978481 102.096443 152.907730 1.375562 -53.931950 42.016823 -68.873146 -61.030830 -116.939346 -27.114157 -4.205174 81.829811 -5.257672 125.229927 94.430000 -49.313702 -32.903286 163.814468 -23.518175 15.612511 -15.225537 8.344880 27.972879 -172.298538 -13.029415 15.072432 124.572685 21.276560 51.741615 -49.326992 -7.784365 -90.581154 
-68729.375000 -79955.218750 -152963.281250 8.768509 36.809658 31.636372 -174.559387 -0.457862 3.000796 22.171232 -19.189953 -5.648946 -37.157616 -6.836075 11.418085 -14.135173 8.163364 159.208252 -50.015614 22.534576 157.890900 -31.828604 -38.847858 147.027695 -90.852531 -7.541317 174.384125 -161.573776 -4.928639 166.019699 -124.661407 -21.201462 123.335411 -2.211278 -36.019341 91.816994 153.137375 -18.136267 -82.183533 33.398365 -44.389793 -49.155647 -124.177040 -30.095697 -5.881569 88.928772 -19.631199 128.082794 94.510719 -49.108807 -31.527531 -174.516266 -23.118954 0.125433 -20.075939 3.189805 27.272404 -176.901535 -12.552078 14.810657 105.686882 14.301539 42.618488 -42.672119 -8.988267 -97.018410 
-59378.398438 -91411.382812 -164868.984375 6.479634 38.498009 28.675541 -171.594742 1.853169 4.519994 15.059875 -17.857845 -2.199556 -36.692379 -6.043150 10.555272 -14.037416 7.368676 157.386368 -24.254261 17.352299 166.787857 -32.337322 -32.073002 146.561417 -99.924759 -8.665004 171.978882 -164.675568 -1.701097 171.944382 -114.636826 -14.135895 122.177544 6.828944 -35.467762 86.487022 149.788437 -29.994333 -90.629135 1.010978 -25.383518 -33.769131 -131.794510 -31.462503 -5.132505 93.923927 -31.030224 125.964142 90.713127 -51.010159 -29.863672 -156.959946 -18.920296 -13.063613 -23.262106 -2.094810 29.101656 178.988220 -11.091902 12.357229 91.011475 0.494824 40.936722 -34.125660 -7.152471 -102.326576 
-49376.246094 -93582.265625 -174122.593750 2.860516 38.245567 24.308313 -167.624969 4.032706 6.350624 5.911549 -17.242369 1.236855 -37.497154 -5.937133 10.639378 -13.521871 6.280136 155.600723 -4.567857 9.538317 168.905807 -31.742527 -22.569534 145.544479 -108.733948 -6.626999 166.387878 -167.266617 2.036478 174.973938 -107.187927 -6.273662 124.169182 11.169927 -36.323380 87.174980 137.024353 -37.814072 -83.230484 -27.063066 -15.540387 -24.859104 -137.758057 -31.192472 -3.127938 96.610092 -39.134472 121.310028 84.319107 -53.585663 -27.157032 -145.437866 -13.485023 -23.544775 -26.776075 -5.967878 31.412466 175.989334 -8.829517 8.420245 77.515213 -15.221969 48.335690 -27.311390 -3.834032 -106.101501 
-52221.914062 -88182.976562 -175027.671875 -0.153261 36.109604 19.299547 -162.632004 6.010960 8.497398 -5.024527 -17.373808 4.808754 -39.128716 -5.767817 11.417464 -12.904922 4.995111 153.861816 5.741903 4.418646 162.680939 -30.352957 -9.393743 144.479950 -118.191734 -3.357537 157.852676 -169.389404 6.544022 174.944275 -101.192078 2.202833 128.070572 9.809618 -37.674404 93.983673 117.274078 -40.593697 -66.630280 -36.473354 -12.446459 -20.861189 -141.187561 -30.114405 -0.998746 95.012337 -43.580799 117.245193 74.271355 -55.533108 -21.914421 -138.250732 -9.173998 -32.501648 -30.410248 -6.524163 32.058987 174.498001 -6.177865 4.052030 60.056019 -28.046539 64.758705 -23.214067 -1.400854 -111.630211 
